<svg viewBox="0 0 46 48" xmlns="http://www.w3.org/2000/svg" xmlns:xlink="http://www.w3.org/1999/xlink"><style>:root&gt;svg{display:none}:root&gt;svg:target{display:block}</style><svg fill="none" viewBox="0 0 12 8" id="arrow" xmlns="http://www.w3.org/2000/svg"><path d="M11 1.17a1 1 0 00-1.41 0L6 4.71 2.46 1.17a1 1 0 10-1.41 1.42l4.24 4.24a1 1 0 001.42 0L11 2.59a.998.998 0 000-1.42z" fill="#000"/></svg><svg fill="none" viewBox="0 0 46 35" id="bid" xmlns="http://www.w3.org/2000/svg"><path d="M42.168 32.614H4.453c-1.644 0-3.142.56-4.404 1.43V11.646C-.077 5.824 5.065.693 10.894.934l6.034-.001c-2.472 3.508-1.34 8.629 2.254 10.815l-1.1 3.22a8.13 8.13 0 01-3.818-3.777l-2.524 1.243a11.008 11.008 0 005.43 5.202l-3.172 9.284 1.049 1.111 1.612-.201 3.213-9.402c1.172.24 5.614.099 6.873.134l3.102 9.08 1.793.39.869-1.3-5.121-14.984C30.986 9.56 32.115 4.435 29.64.928l8.282-.001-.067 25.793h4.326c3.91.152 3.989 5.76-.013 5.894z" fill="#fff"/></svg><svg fill="none" viewBox="0 0 32 32" id="close" xmlns="http://www.w3.org/2000/svg"><path d="M16 0C7.178 0 0 7.178 0 16s7.178 16 16 16 16-7.178 16-16S24.822 0 16 0zm0 30.667c-8.087 0-14.667-6.58-14.667-14.667S7.913 1.333 16 1.333 30.667 7.913 30.667 16 24.087 30.667 16 30.667z" fill="#000"/><path d="M22.471 9.529a.666.666 0 00-.942 0L16 15.057 10.471 9.53a.666.666 0 10-.942.942L15.057 16 9.53 21.529a.666.666 0 10.943.942L16 16.943l5.529 5.528a.665.665 0 00.942 0 .666.666 0 000-.942L16.943 16l5.528-5.529a.666.666 0 000-.942z" fill="#000"/></svg><svg fill="none" viewBox="0 0 21 24" id="more" xmlns="http://www.w3.org/2000/svg"><path d="M0 24l20.835-12L0 0v24z" fill="#000"/></svg><svg fill="none" viewBox="0 0 43 48" id="progect" xmlns="http://www.w3.org/2000/svg"><path d="M.348 0v6.349h5.287v2.807H.348v5.317h5.287v2.807H.348v5.317h5.287v2.807H.348v5.316h5.287v2.807H.348v5.318h5.287v2.807H.348V48h41.777V0H.348zm15.48 39.91l-4.095-4.086 1.989-1.985 2.105 2.1 4.549-4.539 1.988 1.985-6.537 6.525zm0-11.826l-4.095-4.087 1.989-1.984 2.105 2.1 4.549-4.539 1.988 1.985-6.537 6.524zm0-11.827l-4.095-4.086 1.989-1.985 2.105 2.101 4.549-4.54 1.988 1.986-6.537 6.524zm19.968 21.728h-9.12v-2.807h9.12v2.807zm0-12.573h-9.12v-2.807h9.12v2.807zm0-11.654h-9.12V10.95h9.12v2.807z" fill="#000"/></svg><svg fill="none" viewBox="0 0 32 32" id="search" xmlns="http://www.w3.org/2000/svg"><path d="M16 0C7.178 0 0 7.178 0 16s7.178 16 16 16 16-7.178 16-16S24.822 0 16 0zm0 30.667c-8.087 0-14.667-6.58-14.667-14.667S7.913 1.333 16 1.333 30.667 7.913 30.667 16 24.087 30.667 16 30.667z" fill="#000"/><path fill-rule="evenodd" clip-rule="evenodd" d="M14.542 8.625a5.923 5.923 0 00-5.917 5.917 5.923 5.923 0 005.917 5.916c1.392 0 2.67-.487 3.68-1.294l4.015 4.016a.665.665 0 10.943-.943l-4.016-4.016a5.877 5.877 0 001.294-3.68 5.923 5.923 0 00-5.916-5.916zm-4.584 5.917a4.59 4.59 0 014.584-4.584 4.59 4.59 0 014.583 4.584 4.589 4.589 0 01-4.583 4.583 4.59 4.59 0 01-4.584-4.583z" fill="#000"/></svg><svg fill="none" viewBox="0 0 32 32" id="youtube" xmlns="http://www.w3.org/2000/svg"><path d="M14.007 18.998L19.212 16l-5.205-2.998v5.996z" fill="#000"/><path d="M16 0C7.165 0 0 7.165 0 16s7.165 16 16 16 16-7.165 16-16S24.835 0 16 0zm9.998 16.016s0 3.245-.412 4.81a2.505 2.505 0 01-1.762 1.762C22.258 23 16 23 16 23s-6.242 0-7.823-.428a2.506 2.506 0 01-1.763-1.763C6.002 19.261 6.002 16 6.002 16s0-3.245.412-4.81a2.556 2.556 0 011.763-1.778C9.74 9 16 9 16 9s6.259 0 7.823.428c.857.23 1.532.906 1.763 1.763.428 1.564.412 4.825.412 4.825z" fill="#000"/></svg><svg fill="none" viewBox="0 0 32 32" id="youtube-w" xmlns="http://www.w3.org/2000/svg"><path d="M14.007 18.998L19.212 16l-5.205-2.998v5.996z" fill="#fff"/><path d="M16 0C7.165 0 0 7.165 0 16s7.165 16 16 16 16-7.165 16-16S24.835 0 16 0zm9.998 16.016s0 3.245-.412 4.81a2.505 2.505 0 01-1.762 1.762C22.258 23 16 23 16 23s-6.242 0-7.823-.428a2.506 2.506 0 01-1.763-1.763C6.002 19.261 6.002 16 6.002 16s0-3.245.412-4.81a2.556 2.556 0 011.763-1.778C9.74 9 16 9 16 9s6.259 0 7.823.428c.857.23 1.532.906 1.763 1.763.428 1.564.412 4.825.412 4.825z" fill="#fff"/></svg></svg>