<svg viewBox="0 0 130.4 70.6" xmlns="http://www.w3.org/2000/svg"><path d="M130.396 70.528H-.004v-58.4h130.4z" fill="#fff"/><path d="M16 35.3h-3.1v12.2H16c3.4 0 6.1-2.7 6.1-6.1s-2.7-6.1-6.1-6.1" fill="#fd0"/><path d="M16 31.6h-3.1v3.6H16c3.4 0 6.1 2.7 6.1 6.1s-2.7 6.1-6.1 6.1h-3.1V51H16c5.4 0 9.8-3.9 9.8-9.7.1-5.8-4.4-9.7-9.8-9.7m7.9 19.5h3.7v-3.6h-3.7zm36.5-9.7l7.2-7.2v-2.6h-2.7L56.5 40v-8.4H23.9v3.6h6.9V51h3.8V35.3h6.9c-1.3 1.6-2 3.7-2 6.1 0 5.8 4.5 9.7 9.8 9.7h7.2v-8.4l8.4 8.4h5.3zm-7.7 6h-3.3c-2.7 0-5.1-1.8-5.8-4.3H49v-3.5h-5.4c.8-2.5 3.1-4.3 5.8-4.3h3.3z"/><path d="M130.396 12.169H-.004v-12.2h130.4z" fill="#fd0"/><path d="M84.6 34.1v.9h-4.1v2.7h4.6v.9h-5.7v-7.8H85v.9h-4.5v2.4zm2.6 4.5h-1V33h1v2.3H90V33h1v5.6h-1V36h-2.8zm10.4-1.7c-.1.5-.3.9-.8 1.3s-1 .5-1.7.5c-.8 0-1.4-.2-1.8-.5s-.7-.7-.8-1-.2-.6-.2-.9v-1.2c0-.2.1-.5.1-.7.1-.4.4-.8.8-1.2s1-.5 1.8-.5 1.4.2 1.8.6.6.8.7 1.2c0 .2.1.4.1.6v.9h-4.4v.4c0 .2.1.3.1.5.1.3.3.6.5.8s.6.4 1.1.4c.4 0 .7-.1 1-.3s.5-.5.5-.8h1.2zm-1-1.6v-.4c-.1-.3-.2-.7-.4-.9s-.6-.4-1.1-.4c-.6 0-1.1.2-1.3.6-.3.4-.4.8-.4 1.3h3.2zm3.3-2.4v.8c.2-.3.5-.6.8-.8s.7-.3 1.1-.3c.7 0 1.3.2 1.8.7s.7 1.3.7 2.3c0 .9-.2 1.7-.7 2.2s-1.1.8-1.8.8c-.5 0-.9-.1-1.2-.3s-.5-.4-.7-.7v2.9h-1v-7.7h1zm.4 4.4c.3.3.6.6.9.7.1 0 .2 0 .2.1h.4c.3-.1.7-.3 1-.6s.4-.9.4-1.7-.2-1.4-.5-1.8-.7-.6-1.2-.6h-.2c-.4 0-.8.2-1.1.6-.3.3-.5.9-.5 1.8.2.7.3 1.2.6 1.5zm6.3 1.3h-1V33h3.9v.7h-2.9zm3.9-7.8h1v1h-1zm1 2.1v5.6h-1v-5.6zm2.3 5.7h-1.1l1.5-2.2c-.1 0-.2 0-.3-.1-.1 0-.3-.1-.5-.2s-.4-.3-.5-.5-.2-.5-.2-.9v-.3c0-.1 0-.2.1-.3.1-.3.2-.6.5-.8s.7-.4 1.3-.4h2.8v5.6h-1v-2.2h-1.2zm1.2-5h-.3c-.1 0-.2 0-.3.1-.2 0-.3.1-.5.3-.2.1-.2.4-.2.7s.1.6.3.7l.6.3h1.8v-2.1zM82 45.5h.4c.1 0 .3 0 .4.1.3.1.5.2.7.4s.3.5.3.9-.1.7-.3.9-.4.4-.7.4c.3.1.6.2.9.4s.4.6.4 1c0 .5-.2.9-.5 1.1s-.6.3-1 .4h-3.3v-5.6zm-1.7 2.3h1.3c.3 0 .6-.1.8-.2s.3-.4.3-.7-.1-.4-.2-.5-.3-.2-.5-.2h-1.8v1.6zm0 2.6h2c.2 0 .3-.1.5-.2.1-.1.2-.3.2-.6s-.1-.6-.2-.7c-.2-.1-.3-.2-.5-.3-.1 0-.2 0-.3-.1h-1.7zm8.6 0c0-.1.1-.2.2-.3s.1-.3.2-.4c.1-.3.3-.7.4-1.3.1-.5.2-1.2.2-2v-1H94v5h1l-.1 2.2h-.8v-1.5h-4.8v1.5h-.8l-.1-2.2zm1.8-4.2v1.6c0 .4-.1.8-.2 1.3-.1.2-.1.5-.2.7l-.3.6h3v-4.3h-2.3zm5.1-2.8h1v1h-1zm1 2.1v5.6h-1v-5.6zm1.1-2.1h1v1h-1zm1.8 2.1v5.6h-1v-5.6zm-.3-2.1h1v1h-1z"/></svg>