<svg width="62" height="105" fill="none" xmlns="http://www.w3.org/2000/svg"><g clip-path="url(#clip0)"><path d="M32.813 59.129H22.57V0v29.564H.25V59.13h32.563v-.001z" fill="#FFE500"/><path d="M22.57 14.74V0H.25v29.564h22.32V14.74zm18.653 42.307c10.743-4.414 18.321-15.074 18.321-27.4v-.082H41.223v27.482z" fill="#8ECE02"/><path d="M22.57 29.564V59.13h10.244c2.915-.25 5.746-1 8.411-2.082V29.565H22.57v-.001z" fill="#21A2FF"/><path d="M41.225 2.249C37.977.916 34.396.083 30.732 0H22.57v29.564h36.977c0-12.325-7.579-22.902-18.322-27.315z" fill="#FFE500"/><path d="M2.25 77.034h-2V68.54h5.664v1.665H2.249v6.83l.001-.001zm8.743-8.411c1.166 0 2 .25 2.499.833.416.583.666 1.166.666 1.915 0 .833-.166 1.5-.583 1.832-.333.417-.75.666-1.249.75-.25.083-.5.083-.75.166H9.078v2.915H6.996V68.54h3.997v.083zm-1.998 3.914h1.582c.416 0 .75-.083 1-.25.25-.166.416-.5.416-.916 0-.416-.083-.75-.333-.833-.25-.166-.583-.25-1.083-.25H8.995v2.249zm10.16 4.747c-1.582 0-2.665-.5-3.33-1.416a5.054 5.054 0 01-1-3.081v-.5c.083-1 .416-1.915 1.082-2.748.667-.833 1.666-1.25 3.165-1.25s2.582.417 3.248 1.25c.666.833 1 1.749 1.083 2.748v1a4.932 4.932 0 01-1.083 2.748c-.583.833-1.582 1.25-3.165 1.25v-.001zm1.416-2.165c.333-.333.5-.75.583-1.083.083-.25.083-.416.083-.666v-1.166c0-.167-.083-.416-.083-.666-.083-.417-.333-.75-.583-1.166-.333-.333-.75-.5-1.416-.5-.75 0-1.332.25-1.582.75-.333.5-.5.999-.5 1.582v1.083a5.04 5.04 0 00.5 1.582c.25.5.833.666 1.582.666.666.084 1.166-.083 1.416-.416zm6.326-4.081v6.08h-1.999v-8.495h2.832l1.999 5.83 1.998-5.83h2.832v8.494H32.56v-6.08l-2.082 6.08h-1.332l-2.249-6.08v.001zm13.576-2.415l3.165 8.494h-2.082l-.583-1.582H37.89l-.5 1.582h-2.08l3.164-8.494h1.999zm.166 5.413l-1.082-3.248-1.083 3.248h2.166-.001z" fill="#000"/><path d="M53.049 75.452l-.084 3.58h-1.832v-1.915h-5.746v1.916h-1.749l-.083-3.581h.833c.432-.672.768-1.4.999-2.165.166-.75.25-1.666.333-2.749V68.54h6.163v6.828h1.166v.084zm-5.497-5.247v1c0 .832-.083 1.582-.166 2.248a7.637 7.637 0 01-.75 1.915h3.248v-5.163h-2.332zm10.745-1.582l3.164 8.494H59.38l-.583-1.582h-3.081l-.5 1.582h-2.082l3.165-8.494h1.999-.001zm.083 5.413l-1.083-3.248-1.082 3.248h2.165zM7.912 87.777c0 .167-.084.333-.084.583-.083.167-.083.417-.166.583-.167.5-.583 1-1.083 1.416-.5.416-1.332.666-2.415.666-1.25 0-2.082-.25-2.665-.75-.583-.499-1-1.082-1.166-1.665l-.25-1c0-.332-.083-.582-.083-.832 0-1.25.25-2.249.666-2.832.417-.666.916-1.082 1.416-1.332.416-.167.833-.333 1.166-.333.333 0 .666-.084.75-.084 1.082 0 1.915.167 2.498.584.5.416.916.832 1.082 1.415.084.167.167.417.167.583 0 .167.083.333.083.5H5.83c0-.083 0-.167-.084-.25 0-.083-.083-.166-.083-.333-.083-.25-.25-.416-.5-.583-.25-.167-.583-.25-1.082-.25-.583 0-1 .167-1.25.5-.25.333-.5.666-.582 1.082-.084.25-.084.5-.167.833v.583c0 .75.083 1.333.333 1.666.25.416.5.666.75.833.25.166.416.166.583.25h.416c.416 0 .75-.084 1-.25.25-.167.416-.417.5-.583.082-.167.166-.25.166-.417 0-.166.083-.25.083-.333h1.999v-.25zm5.413-5.497c.75 0 1.333.084 1.666.334.333.25.583.5.75.833.083.166.166.416.166.583v.416c0 .416-.083.666-.25.916-.166.25-.333.417-.5.583-.083.083-.25.167-.332.167-.084.083-.167.083-.25.083h.166c.417.083.75.333 1.083.666.333.333.5.833.5 1.5 0 .749-.167 1.248-.584 1.582-.416.333-.832.582-1.249.666-.25.083-.5.083-.75.083H9.079v-8.494h4.247v.083l-.001-.001zm-2.248 3.332h1.999c.166 0 .333-.083.5-.25a.757.757 0 00.25-.583c0-.333-.084-.583-.25-.666-.167-.167-.417-.25-.667-.25h-1.915v1.749h.083zm0 3.581h2.332c.083 0 .166 0 .25-.083.166-.084.333-.167.416-.333.167-.167.167-.334.167-.667 0-.416-.167-.666-.417-.832a2.992 2.992 0 00-.916-.167h-1.832v2.082zm10.656 1.832c-1.582 0-2.665-.5-3.331-1.416a5.054 5.054 0 01-1-3.08v-.5a4.94 4.94 0 011.083-2.749c.666-.833 1.666-1.249 3.165-1.249s2.581.416 3.248 1.25a4.926 4.926 0 011.082 2.747v1a4.932 4.932 0 01-1.082 2.748c-.583.75-1.666 1.166-3.165 1.25v-.001zm1.416-2.165c.333-.333.5-.75.583-1.083.083-.25.083-.416.083-.666v-1.166c0-.166-.083-.416-.083-.666-.084-.416-.334-.75-.583-1.166-.333-.333-.75-.5-1.416-.5-.75 0-1.333.25-1.582.75-.334.5-.5 1-.5 1.582v1.083c.083.583.25 1.082.5 1.582s.832.666 1.582.666c.666.084 1.083-.083 1.416-.416zm6.334-6.58v8.495h-1.999v-8.494h2l-.001-.001zm3.832 2.416v6.08h-1.999V82.28h2.832l1.999 5.83 1.998-5.83h2.832v8.494h-1.999v-6.08l-2.082 6.08h-1.332l-2.249-6.08v.002zm14.739-2.416h1.999v8.495h-2V85.28l-3.414 5.496h-1.998v-8.494h1.998v5.496l3.415-5.496v-.002zM4.246 95.939c1.166 0 1.999.25 2.499.833.416.582.666 1.165.666 1.915 0 .833-.167 1.499-.583 1.832-.333.417-.75.666-1.25.75-.25.083-.499.083-.749.166H2.331v2.915H.332v-8.494h3.914v.083zm-1.999 3.914H3.83c.416 0 .75-.083 1-.25.249-.166.416-.5.416-.916 0-.416-.084-.75-.334-.833-.25-.166-.583-.25-1.082-.25H2.247v2.249zm11.161-3.914h2.165l-2.748 6.746c-.333.832-.75 1.415-1.166 1.582-.416.167-.916.333-1.416.333H9.66c-.166 0-.333-.083-.5-.083h-.166v-1.666c.083 0 .25.084.416.084h.5c.25 0 .5-.084.583-.167a.651.651 0 00.333-.333c0-.083.083-.083.083-.167 0-.083 0-.083.084-.166l-3.165-6.163h2.415l1.832 4.164 1.333-4.164zm7.912 0h2.331l-3.414 3.83 3.58 4.581h-2.414l-2.998-4.164v4.164h-2v-8.494h2v3.58l2.914-3.497h.001z" fill="#000"/><path d="M28.812 95.939l3.165 8.495h-2.082l-.584-1.583h-3.08l-.5 1.583h-2.083l3.165-8.495h2zm.083 5.496l-1.082-3.248-1.083 3.248h2.165zm5.916-3.081v6.08h-1.998v-8.495h2.831l2 5.83 1.997-5.83h2.832v8.495h-1.999v-6.08l-2.082 6.08H37.06l-2.249-6.08zm14.74-2.415h1.998v8.495h-2v-5.497l-3.414 5.497h-1.998v-8.495h1.998v5.496l3.415-5.496zM28.065 79.366h-1.999v1.999h2v-1.999zm2.914 0h-2v1.999h2v-1.999z" fill="#000"/></g><defs><clipPath id="clip0"><path fill="#fff" d="M0 0h62v105H0z"/></clipPath></defs></svg>