<svg width="28" height="48" fill="none" xmlns="http://www.w3.org/2000/svg"><g clip-path="url(#clip0)"><path d="M14.819 27.03h-4.626V0v13.515H.113v13.516h14.706z" fill="#FFE500"/><path d="M10.193 6.738V0H.113v13.515h10.08V6.739zm8.424 19.34c4.851-2.017 8.274-6.89 8.274-12.525v-.038h-8.274V26.08z" fill="#8ECE02"/><path d="M10.193 13.515v13.516h4.626c1.317-.114 2.595-.457 3.799-.952V13.515h-8.425z" fill="#21A2FF"/><path d="M18.618 1.028C17.15.418 15.534.038 13.878 0h-3.685v13.515h16.7c0-5.634-3.424-10.47-8.275-12.487z" fill="#FFE500"/><path d="M1.016 35.215H.113v-3.882H2.67v.76H1.016v3.123zm3.948-3.845c.527 0 .904.115 1.129.381.188.267.3.533.3.876 0 .38-.074.685-.262.837a.89.89 0 01-.565.343c-.112.038-.225.038-.338.076H4.1v1.332h-.94v-3.882h1.804v.038zm-.902 1.79h.715a.795.795 0 00.451-.114c.113-.076.188-.23.188-.42 0-.19-.037-.342-.15-.38-.113-.076-.264-.114-.49-.114h-.714v1.028zm4.589 2.17c-.715 0-1.204-.229-1.504-.648a2.33 2.33 0 01-.452-1.408v-.229c.038-.457.188-.875.489-1.256.3-.38.752-.571 1.429-.571s1.166.19 1.467.571c.3.381.451.8.489 1.256v.458a2.27 2.27 0 01-.49 1.256c-.262.38-.714.571-1.428.571zm.639-.99c.15-.152.226-.343.263-.495.038-.114.038-.19.038-.304v-.533c0-.077-.038-.19-.038-.305-.037-.19-.15-.343-.263-.533-.15-.152-.339-.229-.64-.229-.338 0-.601.115-.714.343a1.27 1.27 0 00-.226.724v.495c.038.266.113.494.226.723.113.228.376.304.715.304.3.039.526-.038.639-.19zm2.857-1.866v2.78h-.903V31.37h1.28l.902 2.665.902-2.666h1.28v3.884h-.904v-2.78l-.94 2.78h-.601l-1.016-2.78zm6.131-1.103l1.43 3.883h-.94l-.264-.724H17.11l-.225.724h-.94l1.43-3.883h.902zm.075 2.474l-.489-1.485-.489 1.485h.978z" fill="#fff"/><path d="M23.958 34.492l-.038 1.637h-.828v-.875h-2.595v.875h-.79l-.037-1.637h.376c.195-.307.347-.64.451-.99.075-.342.113-.761.15-1.256v-.913h2.784v3.12h.527v.04zm-2.483-2.398v.457c0 .38-.037.723-.075 1.027-.073.306-.187.6-.339.876h1.467v-2.36h-1.053zm4.853-.724l1.429 3.884h-.94l-.264-.724h-1.39l-.227.724h-.94l1.43-3.883h.902zm.037 2.475l-.489-1.485-.489 1.485h.978zM3.573 40.127c0 .076-.038.152-.038.266-.037.076-.037.19-.075.267-.075.228-.263.457-.489.647-.226.19-.601.304-1.09.304-.565 0-.94-.114-1.204-.342-.263-.228-.452-.495-.527-.762l-.113-.457c0-.151-.037-.266-.037-.38 0-.572.113-1.028.3-1.295.19-.304.414-.494.64-.609.188-.076.376-.152.527-.152.15 0 .3-.038.339-.038.488 0 .864.076 1.128.267.225.19.413.38.488.647a.71.71 0 01.076.266c0 .077.037.152.037.229h-.902c0-.038 0-.077-.038-.115 0-.037-.038-.075-.038-.152-.037-.114-.112-.19-.225-.266-.113-.077-.264-.115-.489-.115-.263 0-.452.077-.564.229-.113.152-.226.304-.263.495-.038.114-.038.228-.076.38v.267c0 .343.038.61.15.761.114.19.226.305.34.381.112.076.187.076.263.115h.188a.798.798 0 00.451-.115.717.717 0 00.226-.266c.037-.077.075-.115.075-.19 0-.077.037-.115.037-.153h.903v-.114zm2.445-2.513c.338 0 .602.038.752.152a1.1 1.1 0 01.339.381.72.72 0 01.075.267v.19c0 .19-.038.304-.113.419a1.6 1.6 0 01-.226.266.286.286 0 01-.15.076c-.038.038-.075.038-.113.038h.075c.189.038.339.153.49.305.15.152.225.38.225.686 0 .342-.075.57-.264.723-.187.152-.375.266-.564.304-.113.038-.225.038-.338.038H4.1v-3.883h1.918v.038zm-1.015 1.523h.902c.075 0 .15-.038.226-.114a.345.345 0 00.113-.267c0-.152-.038-.266-.113-.304a.424.424 0 00-.301-.115h-.865v.8h.038zm0 1.637h1.053c.037 0 .075 0 .113-.038.075-.038.15-.076.187-.152.076-.077.076-.153.076-.305 0-.19-.076-.305-.188-.38a1.337 1.337 0 00-.414-.077h-.827v.952zm4.812.837c-.715 0-1.204-.228-1.504-.647a2.33 2.33 0 01-.452-1.408v-.228c.033-.46.203-.899.49-1.257.3-.38.751-.571 1.428-.571.677 0 1.166.19 1.467.571.286.358.457.797.489 1.256v.457a2.27 2.27 0 01-.489 1.257c-.263.342-.752.533-1.43.57zm.64-.99a1.07 1.07 0 00.263-.494c.037-.115.037-.19.037-.305v-.533c0-.076-.037-.19-.037-.304-.038-.19-.151-.343-.264-.533-.15-.153-.338-.229-.64-.229-.338 0-.601.114-.714.343-.15.228-.225.457-.225.723v.495c.037.267.113.495.225.723.113.229.376.305.715.305.3.038.489-.038.64-.19zm2.86-3.007v3.883h-.903v-3.883h.903zm1.73 1.104v2.78h-.902v-3.884h1.279l.902 2.665.903-2.665h1.279v3.883h-.903v-2.78l-.94 2.78h-.602l-1.015-2.78v.001zm6.657-1.104h.903v3.883H21.7v-2.512l-1.541 2.513h-.903v-3.883h.902v2.512l1.543-2.512v-.001zM1.918 43.858c.526 0 .902.114 1.128.38.188.267.3.533.3.876 0 .38-.075.685-.262.838a.89.89 0 01-.565.342c-.113.038-.225.038-.338.076H1.053v1.333H.15V43.82h1.768v.038zm-.903 1.79h.715a.795.795 0 00.451-.115c.113-.076.188-.229.188-.419 0-.19-.038-.343-.15-.38-.114-.077-.264-.115-.49-.115h-.714v1.028zm5.04-1.79h.978l-1.241 3.084c-.15.38-.339.647-.527.723-.188.076-.413.152-.64.152h-.262c-.075 0-.15-.038-.226-.038h-.075v-.761c.037 0 .113.038.188.038h.225c.113 0 .226-.038.264-.076a.296.296 0 00.15-.153c0-.038.038-.038.038-.076s0-.038.038-.076l-1.43-2.817h1.09l.828 1.903.602-1.903zm3.573 0h1.053l-1.542 1.75 1.617 2.095h-1.09l-1.354-1.904v1.904h-.903V43.82h.903v1.636l1.316-1.598z" fill="#fff"/><path d="M13.012 43.858l1.43 3.883H13.5l-.264-.723h-1.39l-.227.723h-.94l1.429-3.883h.903zm.037 2.512l-.488-1.484-.49 1.484h.978zm2.672-1.408v2.78h-.902v-3.884h1.278L17 46.523l.902-2.665h1.28v3.883h-.903v-2.78l-.94 2.78h-.602l-1.016-2.78zm6.656-1.104h.903v3.883h-.903v-2.513l-1.542 2.513h-.902v-3.883h.902v2.512l1.542-2.512zm-9.702-7.576h-.903v.913h.903v-.913zm1.316 0h-.903v.913h.903v-.913z" fill="#fff"/></g><defs><clipPath id="clip0"><path fill="#fff" d="M0 0h28v48H0z"/></clipPath></defs></svg>